<svg width="25" height="24" viewBox="0 0 25 24" fill="none" xmlns="http://www.w3.org/2000/svg">
<path d="M13 4C8.58 4 5 7.58 5 12C5 16.42 8.58 20 13 20H18.09C18.94 20 19.36 20 19.7 19.87C20.24 19.67 20.67 19.24 20.88 18.69C21.01 18.35 21.01 17.93 21.01 17.08V11.99C21 7.58 17.42 4 13 4ZM16 16H13C12.45 16 12 15.55 12 15C12 14.45 12.45 14 13 14H16C16.55 14 17 14.45 17 15C17 15.55 16.55 16 16 16ZM16 12H10C9.45 12 9 11.55 9 11C9 10.45 9.45 10 10 10H16C16.55 10 17 10.45 17 11C17 11.55 16.55 12 16 12Z" fill="#16C077"/>
</svg>
