<svg width="24" height="24" viewBox="0 0 24 24" fill="none" xmlns="http://www.w3.org/2000/svg">
<path d="M12.5 15C14.71 15 16.5 13.21 16.5 11V6C16.5 3.79 14.71 2 12.5 2C10.29 2 8.5 3.79 8.5 6V11C8.5 13.21 10.29 15 12.5 15Z" fill="#16C077"/>
<path d="M20.5 11C20.5 10.45 20.05 10 19.5 10C18.95 10 18.5 10.45 18.5 11C18.5 12.6 17.88 14.11 16.74 15.24C15.6 16.37 14.1 17 12.5 17C10.9 17 9.39 16.38 8.26 15.24C7.13 14.11 6.5 12.6 6.5 11C6.5 10.45 6.05 10 5.5 10C4.95 10 4.5 10.45 4.5 11C4.5 13.14 5.33 15.15 6.84 16.66C8.12 17.94 9.75 18.72 11.51 18.94C11.51 18.96 11.5 18.98 11.5 19.01V21.01C11.5 21.56 11.95 22.01 12.5 22.01C13.05 22.01 13.5 21.56 13.5 21.01V19.01C13.5 19.01 13.49 18.97 13.49 18.94C15.25 18.72 16.88 17.94 18.16 16.66C19.67 15.15 20.5 13.14 20.5 11Z" fill="#16C077"/>
</svg>
