<svg width="24" height="24" viewBox="0 0 24 24" fill="none" xmlns="http://www.w3.org/2000/svg">
<path d="M21.9139 9.63107C21.452 7.61278 19.1425 5.17403 17.2528 4.71991C16.4634 4.52649 15.7579 4.68627 15.2037 5.12357C13.5912 4.0051 11.9619 3.98828 11.5588 4.0051C11.0969 3.97988 9.43401 4.0051 7.81314 5.13198C7.25885 4.68627 6.54499 4.52649 5.74716 4.71991C3.85753 5.18244 1.5564 7.61278 1.08609 9.63107C0.842539 10.6991 1.16168 11.4307 1.47241 11.8512C2.12748 12.7426 3.24446 13.0033 3.74836 13.079C3.45442 14.5843 3.48801 16.0055 4.27745 17.2164C5.36083 18.8899 7.65357 19.7982 11.3572 20H11.7268C15.38 19.7982 17.6812 18.8899 18.7561 17.2164C19.5456 15.9971 19.5876 14.5759 19.2852 13.0706C19.7975 12.9865 20.8893 12.7174 21.5276 11.8428C21.8383 11.4223 22.1575 10.6907 21.9139 9.62266V9.63107ZM8.40102 10.2029V9.51334C8.40102 9.05081 8.77895 8.67238 9.24085 8.67238C9.70276 8.67238 10.0807 9.05081 10.0807 9.51334V10.2029C10.0807 10.6654 9.70276 11.0439 9.24085 11.0439C8.77895 11.0439 8.40102 10.6654 8.40102 10.2029ZM13.1965 14.1806L12.3566 15.1057V18.0574C12.3566 18.5199 11.9787 18.8984 11.5168 18.8984C11.0549 18.8984 10.677 18.5199 10.677 18.0574V15.1057L9.83713 14.189C9.34163 13.6508 9.72796 12.7762 10.4586 12.7762H12.5834C13.314 12.7762 13.692 13.6424 13.2049 14.189L13.1965 14.1806ZM14.8173 10.2029C14.8173 10.6654 14.4394 11.0439 13.9775 11.0439C13.5156 11.0439 13.1377 10.6654 13.1377 10.2029V9.51334C13.1377 9.05081 13.5156 8.67238 13.9775 8.67238C14.4394 8.67238 14.8173 9.05081 14.8173 9.51334V10.2029Z" fill="#16C077"/>
</svg>
