<svg width="24" height="24" viewBox="0 0 24 24" fill="none" xmlns="http://www.w3.org/2000/svg">
<path d="M12.0127 18.5772C21.7698 18.0712 19.5583 13.1277 17.7006 8.56581C16.0376 4.50983 12.6319 4.41859 11.8446 4.46006C11.0574 4.42689 7.65167 4.50983 5.98864 8.5741C4.12215 13.1277 1.91067 18.0795 11.6766 18.5855H12.0127V18.5772Z" stroke="#BFBFBF" stroke-width="2" stroke-miterlimit="10"/>
<path d="M9.44824 9.06348V9.74362" stroke="#BFBFBF" stroke-width="2" stroke-linecap="round" stroke-linejoin="round"/>
<path d="M14.4365 9.06348V9.74362" stroke="#BFBFBF" stroke-width="2" stroke-linecap="round" stroke-linejoin="round"/>
<path d="M12.4991 14.8115L13.6137 13.6669C14.1356 13.1361 13.7287 12.2734 12.9591 12.2734H10.7211C9.95149 12.2734 9.55342 13.1278 10.0665 13.6669L11.1811 14.8115C11.5349 15.1682 12.1364 15.1682 12.4903 14.8115H12.4991Z" fill="#BFBFBF"/>
<path d="M11.8447 13.2605V18.3118" stroke="#BFBFBF" stroke-width="2" stroke-miterlimit="10"/>
<path d="M3.98976 11.784C3.98976 11.784 1.17676 11.5932 1.72521 9.36198C2.27365 7.13078 6.05971 3.82959 7.61659 5.57142" stroke="#BFBFBF" stroke-width="2" stroke-linecap="round" stroke-linejoin="round"/>
<path d="M19.6639 11.784C19.6639 11.784 22.4769 11.5932 21.9285 9.36198C21.38 7.13078 17.594 3.82959 16.0371 5.57142" stroke="#BFBFBF" stroke-width="2" stroke-linecap="round" stroke-linejoin="round"/>
</svg>
