<svg width="24" height="24" viewBox="0 0 24 24" fill="none" xmlns="http://www.w3.org/2000/svg">
<path d="M12.4776 2C10.5376 2 8.63761 2.57 7.01761 3.63C5.39761 4.69 4.11761 6.2 3.33761 7.98C2.55761 9.76 2.31761 11.72 2.63761 13.64C2.95761 15.55 3.81761 17.33 5.13761 18.76C6.07761 19.77 7.20761 20.59 8.47761 21.14C9.73761 21.69 11.1076 21.98 12.4876 21.98C13.8676 21.98 15.2376 21.69 16.4976 21.14C17.7576 20.59 18.8976 19.78 19.8376 18.76C21.1476 17.33 22.0176 15.55 22.3376 13.64C22.6576 11.73 22.4076 9.76 21.6276 7.99C20.8476 6.21 19.5676 4.7 17.9476 3.64C16.3176 2.57 14.4176 2 12.4776 2ZM12.4776 20C10.4076 20 8.41761 19.19 6.92761 17.75C7.37761 16.65 8.14761 15.71 9.13761 15.05C10.1276 14.39 11.2876 14.03 12.4776 14.03C13.6676 14.03 14.8276 14.38 15.8176 15.05C16.8076 15.71 17.5776 16.65 18.0276 17.75C16.5376 19.19 14.5476 20 12.4776 20ZM9.47761 9.66C9.47761 9.07 9.65761 8.49 9.97761 8C10.3076 7.51 10.7776 7.12 11.3176 6.9C11.8676 6.67 12.4676 6.61 13.0476 6.73C13.6276 6.85 14.1576 7.13 14.5776 7.55C14.9976 7.97 15.2776 8.5 15.3976 9.08C15.5176 9.66 15.4576 10.26 15.2276 10.81C14.9976 11.36 14.6176 11.83 14.1276 12.15C13.6376 12.48 13.0576 12.65 12.4676 12.65C11.6776 12.65 10.9076 12.33 10.3476 11.77C9.78761 11.21 9.46761 10.45 9.46761 9.65L9.47761 9.66Z" fill="#16C077"/>
</svg>
