<svg width="118" height="118" viewBox="0 0 118 118" fill="none" xmlns="http://www.w3.org/2000/svg">
<g id="dog (2) 1" clip-path="url(#clip0_379_6302)">
<g id="Group">
<g id="Group_2">
<g id="Group_3">
<path id="Vector" d="M113.102 33.7067C109.347 27.3842 104.071 21.3702 100.509 18.2151C92.7329 11.3257 86.2463 11.4934 83.0712 12.207C81.7372 12.5068 80.5123 13.0012 79.4339 13.6605C73.8937 9.54922 67.1539 7.53516 58.9999 7.53516C50.8459 7.53516 44.1059 9.54922 38.5659 13.6608C37.4873 13.0014 36.2626 12.5068 34.9286 12.2072C31.7544 11.4939 25.2669 11.3259 17.4914 18.2151C13.9291 21.3704 8.65364 27.3845 4.89793 33.7069C-0.186664 42.2667 -1.31919 49.1912 1.53171 54.2884C5.0127 60.5118 10.2927 62.1043 14.5552 62.497C13.5075 66.5659 12.8606 70.9188 12.8606 76.3424C12.8606 83.5314 14.4969 89.7162 17.7246 94.7252C20.5619 99.129 24.6468 102.655 29.8655 105.206C39.5078 109.92 51.1112 110.465 59.0001 110.465C66.8891 110.465 78.4927 109.92 88.1348 105.206C93.3533 102.655 97.4383 99.129 100.276 94.7252C103.503 89.716 105.14 83.5312 105.14 76.3424C105.14 70.919 104.493 66.5662 103.445 62.497C107.708 62.1041 112.988 60.5113 116.469 54.2882C119.319 49.1914 118.186 42.2667 113.102 33.7067ZM16.7961 55.3831C13.0238 55.284 9.95625 54.5537 7.83571 50.7627C6.39712 48.1905 7.5898 43.3184 11.1084 37.3951C14.4476 31.7733 19.2407 26.3144 22.281 23.6209C27.302 19.172 31.066 18.927 32.8369 19.1641C27.5668 25.5887 24.3365 33.9381 21.6352 42.0559C20.5165 45.4175 19.4384 48.2875 18.3953 51.0635C17.8376 52.5486 17.301 53.9771 16.7961 55.3831ZM54.288 79.0638C52.4196 77.1963 51.4417 75.2359 51.4417 74.2647C51.4417 73.3975 51.5903 73.3352 52.1428 73.1027C53.7176 72.4401 56.8105 72.3636 58.9999 72.3636C61.1894 72.3636 64.2822 72.4401 65.857 73.1027C66.4095 73.335 66.5581 73.3977 66.5581 74.2647C66.5581 75.2359 65.5805 77.196 63.7118 79.0638C61.8743 80.9001 59.9128 81.8909 58.9997 81.8909C58.0866 81.8909 56.1255 80.9001 54.288 79.0638ZM84.9629 98.7176C79.4199 101.427 72.0822 102.896 62.6113 103.187V88.3927C65.447 87.2984 67.7563 85.2334 68.8179 84.1725C70.3101 82.6812 73.781 78.73 73.781 74.2649C73.781 70.6123 71.9617 67.8351 68.6581 66.4454C66.4562 65.5189 63.6579 65.1409 59.0001 65.1409C54.3424 65.1409 51.544 65.5189 49.3419 66.4454C46.0386 67.8351 44.219 70.612 44.219 74.2649C44.219 78.73 47.6901 82.681 49.1822 84.1725C50.2437 85.2336 52.5532 87.2986 55.3887 88.3927V103.187C45.9178 102.896 38.5802 101.427 33.0372 98.7176C24.3204 94.4567 20.083 87.1377 20.083 76.3424C20.083 67.1071 22.2112 61.4428 25.1563 53.6035C26.1734 50.8966 27.3257 47.8286 28.488 44.3363C34.8719 25.1531 41.6251 14.7578 58.9999 14.7578C76.3747 14.7578 83.1279 25.1533 89.5116 44.3363C90.6736 47.8288 91.8264 50.8966 92.8433 53.6035C95.7884 61.4428 97.9166 67.1068 97.9166 76.3424C97.9168 87.1377 93.6794 94.4567 84.9629 98.7176ZM110.165 50.7627C108.044 54.5541 104.976 55.2838 101.204 55.3831C100.699 53.9768 100.163 52.5486 99.605 51.0635C98.5621 48.2877 97.484 45.4175 96.365 42.0559C93.6637 33.9381 90.4335 25.5887 85.1634 19.1641C86.9343 18.9274 90.6985 19.172 95.7197 23.6212C98.7601 26.3142 103.553 31.7728 106.892 37.3946C110.41 43.3184 111.603 48.1907 110.165 50.7627Z" fill="#AAAAAA"/>
<path id="Vector_2" d="M46.9815 45.9219C44.3687 45.9219 42.2422 48.0701 42.2422 50.7225C42.2422 53.3748 44.3685 55.5248 46.9815 55.5248C49.5978 55.5248 51.7239 53.3745 51.7239 50.7225C51.7239 48.0701 49.5978 45.9219 46.9815 45.9219Z" fill="#AAAAAA"/>
<path id="Vector_3" d="M70.9834 45.8848C68.3452 45.8848 66.2051 48.0509 66.2051 50.723C66.2051 53.395 68.3452 55.5612 70.9834 55.5612C73.6186 55.5612 75.7584 53.395 75.7584 50.723C75.7587 48.0509 73.6186 45.8848 70.9834 45.8848Z" fill="#AAAAAA"/>
</g>
</g>
</g>
</g>
<defs>
<clipPath id="clip0_379_6302">
<rect width="118" height="118" fill="white"/>
</clipPath>
</defs>
</svg>
